<?xml version="1.0" encoding="utf-8"?>
<!-- Svg Vector Icons : http://www.onlinewebfonts.com/icon -->
<!DOCTYPE svg PUBLIC "-//W3C//DTD SVG 1.1//EN" "http://www.w3.org/Graphics/SVG/1.1/DTD/svg11.dtd">
<svg version="1.1" xmlns="http://www.w3.org/2000/svg" xmlns:xlink="http://www.w3.org/1999/xlink" x="0px" y="0px" viewBox="0 0 1000 1000" enable-background="new 0 0 1000 1000" xml:space="preserve">
<metadata> Svg Vector Icons : http://www.onlinewebfonts.com/icon </metadata>
<g><path d="M892,833.2H108c-54,0-98-44-98-98V264.8c0-54,44-98,98-98h784c54,0,98,44,98,98v470.4C990,789.2,946,833.2,892,833.2z M108,206c-32.4,0-58.8,26.4-58.8,58.8v470.4c0,32.4,26.4,58.8,58.8,58.8h784c32.4,0,58.8-26.4,58.8-58.8V264.8c0-32.4-26.4-58.8-58.8-58.8L108,206L108,206z"/><path d="M408.3,691c-26.4,0-44.8-21.3-44.8-51.9V360.8c0-30.5,18.4-51.9,44.7-51.9c9.8,0,19.9,3,29.9,8.8l241,139.2c18.1,10.4,28.5,26.1,28.5,43.1s-10.4,32.7-28.5,43.1l-241,139.2C428.1,688.1,418,691,408.3,691z M408.2,348.2c-5.1,0-5.5,9.7-5.5,12.7v278.3c0,3.8,0.5,12.7,5.6,12.7c1.6,0,5-0.5,10.3-3.5l241-139.2c6.5-3.8,8.9-7.6,8.9-9.2c0-1.6-2.4-5.4-8.9-9.2l-241-139.2C413.2,348.6,409.8,348.2,408.2,348.2z"/></g>
</svg>