<?xml version="1.0" standalone="no"?>
<!DOCTYPE svg PUBLIC "-//W3C//DTD SVG 20010904//EN"
 "http://www.w3.org/TR/2001/REC-SVG-20010904/DTD/svg10.dtd">
<svg version="1.0" xmlns="http://www.w3.org/2000/svg"
 width="522.000000pt" height="478.000000pt" viewBox="0 0 522.000000 478.000000"
 preserveAspectRatio="xMidYMid meet">

<g transform="translate(0.000000,478.000000) scale(0.100000,-0.100000)"
fill="#000000" stroke="none">
<path d="M1697 4300 c-59 -10 -70 -19 -87 -70 -7 -22 -15 -40 -17 -40 -2 0
-22 20 -46 44 -77 81 -194 87 -272 15 -39 -36 -51 -55 -69 -112 -5 -16 -9 -15
-45 8 -45 30 -120 55 -166 55 -52 0 -131 -28 -178 -64 l-43 -33 -39 45 c-62
71 -125 88 -218 56 -25 -8 -66 -34 -90 -57 -65 -61 -81 -123 -74 -287 4 -109
8 -133 32 -188 l28 -63 -23 -57 c-13 -31 -72 -155 -131 -274 -148 -300 -153
-351 -42 -469 26 -28 75 -71 108 -95 66 -47 277 -260 340 -342 44 -58 180
-177 220 -192 17 -6 27 -20 32 -41 3 -17 12 -33 19 -36 8 -3 14 -9 14 -14 0
-5 10 -29 21 -54 17 -35 20 -55 14 -91 -5 -37 -3 -50 12 -66 10 -11 17 -22 15
-24 -1 -2 4 -28 13 -57 17 -61 35 -245 35 -371 0 -66 4 -94 15 -106 19 -21 22
-184 5 -253 -10 -39 -10 -50 1 -64 21 -24 18 -319 -4 -528 -17 -158 -51 -400
-64 -452 -5 -21 -1 -23 31 -23 42 0 37 -14 68 190 20 127 23 183 23 453 0 169
0 307 0 307 0 0 26 -13 58 -29 31 -15 54 -31 50 -34 -3 -4 -2 -7 3 -7 5 -1 29
-5 54 -11 25 -5 117 -13 205 -18 170 -10 201 -7 378 35 54 13 100 24 103 24 2
0 -2 -13 -10 -28 -8 -15 -17 -46 -20 -67 l-7 -40 20 48 c25 63 64 113 102 133
17 8 32 14 34 12 2 -2 -14 -30 -35 -62 -21 -32 -67 -129 -101 -215 -34 -86
-70 -173 -80 -193 -11 -21 -19 -41 -19 -45 1 -13 41 67 81 162 20 50 51 123
69 164 17 41 40 89 51 107 36 59 149 133 176 116 11 -8 63 -237 88 -392 9 -52
24 -140 34 -195 11 -55 25 -136 31 -180 6 -44 19 -115 27 -157 l16 -78 38 0
c22 0 39 2 39 4 0 3 -13 67 -29 143 -16 76 -48 226 -71 333 -22 107 -47 223
-55 257 -8 34 -15 69 -15 77 0 22 141 63 630 180 80 19 233 61 340 94 107 33
247 74 310 92 63 17 120 36 125 42 7 7 4 8 -10 5 -11 -4 -69 -13 -130 -21
-109 -15 -423 -75 -605 -116 -294 -65 -633 -130 -681 -130 -13 0 -19 14 -25
57 -5 32 -8 67 -7 78 0 11 -5 51 -13 88 -19 94 -18 191 2 223 18 27 13 46 -26
94 -29 36 -44 187 -36 359 5 94 3 137 -5 147 -9 11 -8 18 1 29 13 16 11 64 -9
210 -5 34 -4 88 1 125 5 36 11 76 12 90 2 14 6 32 9 40 24 54 53 258 39 272
-8 8 -5 19 9 38 24 32 34 119 21 178 -11 46 -7 50 24 28 20 -14 21 -22 16
-170 l-5 -155 27 -7 c56 -14 164 46 203 114 54 90 31 227 -56 335 -16 21 -33
48 -37 60 -20 68 -89 117 -163 117 -45 0 -48 3 -52 45 -4 29 -2 31 66 52 39
12 82 24 97 27 32 7 61 46 53 68 -8 20 -48 38 -84 38 -20 0 -31 7 -39 25 -19
41 -14 68 22 137 22 41 32 69 26 78 -14 23 -79 13 -157 -24 -72 -35 -73 -35
-73 -12 0 45 65 111 155 156 39 20 51 32 53 52 2 19 -2 28 -17 33 -14 4 -22
18 -27 51 -5 37 -2 53 22 100 43 84 19 87 -121 12 -33 -17 -135 -116 -135
-129 0 -23 -21 -4 -38 34 -26 56 -103 158 -147 191 -67 51 -137 69 -218 56z
m-172 -65 c20 -15 34 -33 31 -40 -2 -7 -2 -16 2 -19 10 -11 9 -46 -2 -46 -6 0
-5 -5 2 -12 15 -15 16 -32 2 -23 -15 10 -12 -5 6 -22 10 -10 13 -25 9 -44 -4
-16 -1 -133 6 -261 17 -297 17 -293 -9 -321 -12 -13 -22 -28 -22 -34 0 -14
-92 -53 -125 -53 -57 0 -112 72 -129 170 -6 33 -4 36 37 54 23 10 47 18 52 17
6 -2 7 0 3 4 -3 4 7 28 23 53 21 33 29 58 29 90 0 49 -9 70 -57 129 -24 29
-30 43 -21 46 7 3 -2 6 -19 6 -18 1 -33 6 -33 11 0 6 -10 10 -22 10 -47 0 -53
13 -53 118 0 95 1 100 30 134 40 47 62 61 110 68 58 8 109 -3 150 -35z m337
14 c57 -29 149 -127 187 -199 l32 -59 -35 -69 c-20 -40 -41 -69 -50 -69 -8 0
-13 3 -11 7 2 3 6 28 9 56 5 36 3 45 -5 34 -8 -12 -9 -11 -5 5 3 11 7 38 10
60 6 39 6 39 -4 8 -16 -50 -22 -39 -16 30 3 37 2 52 -2 37 -8 -24 -9 -23 -16
14 -4 21 -10 36 -12 33 -3 -3 -7 -63 -8 -134 -3 -120 -18 -216 -37 -237 -6 -6
-10 -2 -11 10 0 10 -4 -21 -8 -71 -8 -101 -29 -183 -61 -235 l-22 -35 -9 25
c-18 47 -33 73 -45 77 -7 3 -3 -12 8 -34 25 -48 25 -73 1 -66 -12 3 -25 -4
-36 -21 -9 -14 -22 -26 -29 -26 -24 0 -59 47 -64 87 -5 41 5 57 42 66 12 3 5
5 -17 6 l-36 1 -8 67 c-13 125 1 288 35 397 17 54 31 109 31 121 0 28 16 35
83 36 l52 1 -58 15 c-65 17 -75 43 -22 54 23 5 25 7 8 8 -25 1 -31 16 -10 25
22 10 96 -3 139 -25z m-1182 -81 c18 -13 45 -39 61 -58 27 -34 27 -37 21 -137
-10 -143 -12 -145 -230 -189 -24 -5 -47 -25 -74 -64 -13 -21 -19 -23 -35 -14
-10 6 -26 26 -36 45 -15 29 -18 53 -14 154 4 139 20 182 87 235 70 55 162 67
220 28z m1646 -11 c-16 -12 -38 -30 -50 -40 -21 -18 -21 -18 4 -3 39 26 51 21
38 -15 -6 -17 -8 -50 -5 -74 6 -40 4 -44 -21 -54 -28 -12 -74 -51 -107 -92
-13 -16 -8 -13 15 8 54 49 111 83 136 83 36 0 28 -23 -14 -42 -61 -29 -129
-94 -196 -191 -62 -89 -212 -247 -235 -247 -16 0 -14 22 6 49 9 14 11 21 5 17
-35 -21 -10 70 37 134 l26 35 -27 -17 c-62 -41 -50 -10 25 65 42 41 74 84 94
127 55 117 123 194 223 253 55 33 87 35 46 4z m-1245 -2 c46 -17 92 -52 84
-66 -3 -4 0 -11 5 -14 21 -13 30 -54 19 -79 -10 -22 -14 -23 -47 -14 -64 18
-128 4 -234 -50 -116 -59 -113 -60 -113 67 0 83 0 83 34 112 67 56 168 73 252
44z m29 -190 c34 -18 53 -47 44 -69 -4 -10 -1 -16 7 -16 7 0 -2 -16 -21 -35
-19 -19 -30 -35 -24 -35 5 0 -2 -9 -16 -20 -14 -11 -18 -18 -9 -14 19 6 35
-11 19 -21 -6 -4 -7 -11 -4 -17 5 -8 1 -9 -10 -5 -10 4 -15 3 -11 -3 3 -5 -16
-20 -42 -33 -67 -33 -139 -29 -185 11 -27 23 -22 -1 5 -26 13 -12 47 -26 75
-32 63 -12 104 0 175 49 28 19 47 27 47 19 0 -19 -47 -95 -114 -185 -67 -90
-122 -131 -193 -143 -27 -4 -39 -8 -28 -9 37 -2 -6 -21 -50 -21 -30 0 -36 -3
-25 -10 8 -5 26 -10 39 -10 20 0 22 -2 10 -16 -7 -8 -29 -24 -48 -35 -20 -11
-26 -17 -13 -14 28 8 29 -10 2 -25 -11 -6 -18 -15 -15 -20 3 -5 1 -11 -5 -15
-6 -4 -8 -10 -5 -15 8 -12 -65 -73 -110 -91 -22 -9 -51 -22 -65 -28 -24 -10
-24 -10 5 -4 17 3 48 12 70 20 78 28 82 26 35 -17 -49 -45 -151 -109 -178
-111 -15 -1 -15 -2 -1 -6 23 -6 125 42 173 81 83 67 209 126 271 126 36 0 85
-21 85 -37 0 -8 4 -12 9 -9 5 3 12 -1 15 -10 13 -35 4 -105 -24 -182 -21 -58
-26 -83 -18 -88 13 -8 17 -4 101 126 34 52 67 96 74 98 22 6 27 -82 8 -140
-26 -79 -74 -165 -96 -171 -22 -6 -24 3 -6 23 7 8 1 7 -15 -3 -32 -20 -34 -17
-13 23 11 22 3 16 -38 -24 -37 -38 -65 -55 -97 -64 -24 -6 -46 -10 -48 -8 -1
2 7 21 19 42 l21 39 -25 -31 c-15 -17 -39 -39 -54 -49 l-28 -18 16 24 c31 48
28 60 -5 25 -44 -47 -63 -46 -33 2 35 56 39 62 34 62 -2 0 -18 -20 -36 -45
-18 -25 -46 -52 -63 -61 -33 -17 -47 -14 -23 6 28 23 15 31 -15 9 -35 -27 -51
-18 -24 12 16 18 12 17 -20 -5 -49 -33 -67 -33 -35 0 l24 25 -50 -27 -50 -27
25 28 25 28 -25 -16 c-26 -18 -55 -23 -46 -8 3 5 -14 6 -38 4 -30 -4 -57 1
-87 14 -51 23 -153 113 -175 154 -14 28 -14 29 8 30 13 0 17 3 11 6 -19 7 -16
23 5 23 12 1 8 6 -12 16 -26 15 -27 17 -12 32 11 11 33 17 65 17 62 0 57 11
-9 20 -27 4 -52 11 -55 15 -3 5 48 116 113 247 65 131 131 267 146 303 l28 65
14 -35 13 -35 -2 50 c-2 46 0 50 21 48 18 -2 22 2 22 27 0 27 5 31 52 45 28 8
59 15 67 15 9 0 44 13 77 29 64 30 92 28 81 -5 -6 -17 -5 -17 6 0 50 79 144
143 255 175 2 1 16 -6 32 -14z m40 -140 c-7 -8 -18 -15 -24 -15 -6 0 -2 7 8
15 25 19 32 19 16 0z m-15 -35 c-3 -5 -12 -10 -18 -10 -7 0 -6 4 3 10 19 12
23 12 15 0z m1255 -25 c0 -2 -12 -11 -27 -19 -19 -11 -23 -15 -11 -16 15 0 15
-4 -5 -36 -12 -20 -32 -47 -44 -61 -13 -13 -23 -28 -23 -33 0 -6 -6 -10 -14
-10 -8 0 -17 -4 -20 -9 -4 -5 3 -7 14 -4 32 8 23 -5 -17 -26 -45 -24 -40 -27
11 -6 48 20 47 4 -1 -19 -41 -19 -173 -106 -173 -113 0 -5 13 2 65 37 22 15
60 38 85 50 78 40 26 -5 -70 -60 -90 -52 -106 -58 -94 -38 4 7 3 8 -5 4 -6 -4
-9 -11 -6 -16 3 -5 -20 -23 -52 -40 -32 -17 -47 -28 -33 -24 14 3 70 31 125
62 220 123 238 131 286 132 25 0 54 -6 65 -14 19 -15 19 -15 -1 -34 -11 -11
-55 -30 -98 -41 -42 -12 -127 -46 -189 -77 -133 -67 -228 -93 -368 -101 -107
-6 -275 10 -286 28 -3 5 54 10 133 10 109 2 126 3 83 9 -30 5 -79 8 -107 9
-65 1 -71 21 -7 21 88 0 296 72 359 125 l30 25 -45 -25 c-51 -28 -139 -59
-146 -52 -3 3 19 16 48 30 35 16 86 57 148 117 99 98 194 166 276 199 44 18
114 28 114 16z m-1111 -306 c1 -57 -2 -70 -24 -93 -37 -40 -101 -66 -167 -66
-47 0 -62 5 -88 27 l-32 26 24 18 c12 10 28 19 35 19 6 0 13 4 15 8 6 15 105
88 137 101 17 8 28 17 25 22 -3 5 1 6 9 4 7 -3 22 4 32 15 18 20 20 20 26 3 4
-10 8 -48 8 -84z m377 -83 c25 -19 20 -22 -56 -30 -64 -7 -64 -7 -46 13 10 11
30 22 45 24 14 2 29 5 32 6 3 0 14 -5 25 -13z m584 -42 c0 -8 -4 -12 -10 -9
-5 3 -10 10 -10 16 0 5 5 9 10 9 6 0 10 -7 10 -16z m-1350 -40 c0 -25 -56 -74
-84 -74 -30 0 -30 0 -14 36 19 40 98 71 98 38z m555 -19 c157 -54 321 -57 580
-11 148 27 276 33 337 16 32 -9 95 -66 85 -76 -2 -3 -21 3 -43 12 -24 10 -75
18 -134 20 l-95 3 87 -13 c119 -18 129 -21 175 -55 53 -38 90 -87 114 -151 19
-50 11 -59 -17 -21 -7 9 -34 31 -60 50 l-49 35 54 -55 c52 -53 98 -125 87
-137 -4 -3 -29 19 -57 49 -28 30 -44 43 -35 29 33 -52 66 -120 66 -137 0 -22
-27 -63 -41 -63 -5 0 -9 20 -9 45 0 59 -26 110 -87 167 -59 54 -85 69 -175 96
-128 40 -184 45 -432 43 -168 -2 -236 1 -231 8 3 7 42 11 93 11 100 0 261 28
240 42 -8 5 2 7 27 3 27 -3 34 -2 20 3 -17 8 -13 10 23 17 24 4 42 9 39 11 -2
2 -77 -8 -168 -22 -170 -27 -290 -28 -370 -5 -43 13 -162 84 -167 100 -6 19
67 12 143 -14z m-64 -73 c41 -21 85 -42 99 -46 14 -4 20 -10 13 -12 -24 -10
-223 69 -223 87 0 18 39 8 111 -29z m434 -37 c-60 -14 -133 -20 -123 -10 8 8
82 20 137 22 l46 2 -60 -14z m-404 -61 c19 -14 67 -44 108 -66 67 -37 72 -43
56 -54 -15 -12 -24 -10 -58 9 -45 25 -168 136 -151 137 5 0 26 -12 45 -26z
m80 -3 c13 -10 51 -30 84 -44 62 -26 76 -40 50 -51 -24 -9 -185 81 -185 104 0
16 25 12 51 -9z m109 -11 c54 -21 74 -26 50 -10 -26 16 -3 22 34 9 42 -15 48
-34 9 -25 -16 3 -22 3 -15 0 21 -10 13 -24 -14 -24 -30 0 -144 48 -144 61 0
14 25 11 80 -11z m452 -7 c23 -28 -81 -111 -234 -188 -135 -68 -140 -77 -13
-23 94 39 176 86 259 147 66 49 108 63 121 40 4 -5 -1 -19 -10 -29 -16 -18
-15 -18 24 -13 33 5 42 2 47 -12 13 -33 -28 -86 -99 -133 -148 -96 -263 -136
-595 -208 -123 -27 -218 -50 -213 -52 23 -8 411 79 551 124 108 34 231 90 300
138 64 44 86 44 83 -2 -2 -45 -15 -58 -106 -103 -277 -140 -967 -276 -1332
-263 -219 8 -292 20 -302 50 -3 8 52 10 189 9 l193 -3 -170 8 c-191 8 -175 7
-175 20 0 6 12 11 28 11 26 2 26 2 2 6 -54 8 -70 14 -70 25 0 7 25 9 81 5 87
-6 152 0 144 14 -3 4 21 13 52 19 103 21 276 68 368 100 108 38 387 181 505
259 102 67 113 72 131 60 11 -8 8 -14 -15 -34 -83 -68 -350 -206 -564 -292
-82 -33 -75 -39 8 -8 205 75 385 162 536 260 103 67 122 77 158 84 43 9 104 1
118 -16z m-526 -118 c-7 -23 -53 -2 -93 42 -24 27 -43 51 -43 56 0 4 31 -14
70 -40 38 -27 68 -52 66 -58z m880 -29 c20 -20 18 -26 -11 -26 -18 0 -25 5
-25 20 0 23 16 26 36 6z m-1061 -36 l16 -30 -57 -25 c-32 -14 -59 -24 -61 -22
-2 2 2 19 8 38 25 72 67 90 94 39z m1091 -6 c-3 -8 -2 -12 4 -9 9 5 15 -15 11
-37 0 -5 4 -8 9 -8 7 0 7 -6 1 -19 -6 -10 -7 -21 -4 -25 4 -3 -4 -18 -18 -33
-22 -24 -22 -26 -4 -20 15 6 14 1 -8 -18 -45 -40 -64 -34 -63 20 0 33 4 45 15
46 12 1 12 2 -1 6 -10 2 -18 11 -18 18 0 8 8 19 18 24 16 10 16 10 -2 11 -26
0 -9 17 24 23 24 4 24 4 -2 6 -16 0 -28 5 -28 10 0 5 12 12 28 14 15 2 31 5
36 6 4 0 5 -6 2 -15z m-197 -168 c18 -21 -14 -50 -102 -93 -40 -19 -59 -32
-44 -29 22 5 76 28 151 64 18 9 -6 -54 -31 -80 -14 -14 -52 -41 -84 -58 -98
-52 -64 -48 40 5 38 19 51 22 51 12 0 -29 -44 -68 -113 -101 -105 -50 -339
-126 -434 -142 -133 -21 -537 6 -570 39 -16 16 12 18 99 7 59 -8 135 -10 211
-5 171 10 240 24 87 18 -126 -6 -337 11 -354 27 -15 14 40 23 114 18 38 -3 74
-1 82 3 8 6 0 9 -23 9 -55 0 -129 12 -129 20 0 4 55 11 123 16 l122 8 -102 6
c-96 5 -125 12 -110 27 4 3 109 28 232 54 239 51 534 125 650 164 82 28 118
30 134 11z m-1129 -248 c0 -8 -58 -25 -130 -39 -40 -7 -38 -8 20 -4 80 5 53
-9 -60 -30 l-75 -15 75 6 c41 3 83 7 93 10 9 3 17 1 17 -4 0 -9 -63 -31 -96
-33 -11 -1 -3 -5 16 -8 34 -7 34 -7 -30 -24 l-65 -17 53 5 c54 6 74 -9 27 -21
-13 -3 -23 -11 -22 -17 1 -5 -9 -14 -23 -18 -16 -4 -19 -7 -8 -8 15 -1 16 -5
6 -26 -6 -14 -16 -25 -21 -25 -21 0 -199 143 -228 183 l-31 42 34 6 c18 4 24
7 13 8 -26 2 -49 17 -42 27 6 11 477 12 477 2z m1070 -73 c0 -2 -24 -19 -52
-36 -51 -29 -32 -31 24 -3 15 8 29 14 33 14 3 0 5 -31 5 -69 0 -68 -1 -71 -35
-96 -19 -15 -54 -33 -77 -40 -24 -8 -34 -14 -23 -14 35 -2 87 18 108 40 24 25
32 16 40 -49 10 -82 -48 -102 -323 -112 l-195 -8 210 4 c116 2 231 6 258 10
32 4 47 2 47 -6 0 -17 -76 -47 -155 -61 -78 -15 -326 -18 -510 -7 l-120 7 65
-14 c36 -8 127 -18 203 -21 75 -4 136 -8 135 -9 -4 -4 -327 -43 -416 -50 -87
-7 -364 4 -383 16 -25 15 2 24 89 30 l87 6 -65 3 c-36 2 -72 4 -81 5 -22 1
-49 24 -49 41 0 9 12 14 33 15 l32 1 -33 8 c-40 9 -39 8 -48 44 l-7 29 79 -6
c43 -4 72 -4 64 -1 -42 16 -41 18 5 24 48 7 48 7 -22 8 -39 1 -74 6 -77 11
-10 15 119 24 329 24 l200 -1 -135 9 c-183 12 -220 17 -220 34 0 22 40 25 320
24 187 -1 297 3 375 14 l110 15 -110 -6 c-146 -9 -443 -8 -477 1 -60 16 -20
22 155 24 128 1 200 6 242 16 l60 16 -60 -5 c-58 -4 -56 -3 55 30 63 19 153
48 200 65 84 29 110 35 110 26z m-1070 -100 c0 -3 -10 -10 -22 -15 -18 -8 -16
-9 12 -4 29 6 33 4 23 -8 -11 -12 -8 -14 20 -11 l32 4 -25 -15 c-35 -20 -144
-40 -175 -32 -25 6 -25 7 -8 31 10 13 34 31 53 39 34 15 90 21 90 11z m-40
-154 c0 -9 -71 -24 -78 -16 -2 2 -1 8 3 14 7 13 75 15 75 2z m1071 -191 c10
-6 19 -16 19 -23 0 -23 -64 -76 -135 -112 -39 -20 -61 -33 -50 -30 122 32 137
35 155 25 40 -21 -14 -67 -111 -95 -31 -9 -39 -13 -19 -10 120 17 156 17 170
0 20 -25 3 -46 -61 -72 l-54 -22 52 -1 c60 0 76 -15 44 -41 -24 -20 -129 -54
-199 -65 -23 -4 -40 -9 -37 -12 3 -3 49 3 103 12 102 19 146 14 158 -19 20
-52 -132 -105 -416 -144 l-65 -9 52 -1 c29 0 105 6 169 14 64 9 119 14 121 11
8 -8 -181 -76 -242 -87 -37 -7 -128 -9 -240 -6 -174 4 -220 11 -416 58 -41 10
-56 34 -37 56 12 15 36 14 108 -3 14 -3 8 3 -15 14 -52 25 -105 70 -105 89 0
13 3 13 18 2 11 -9 10 -5 -4 11 -16 19 -23 44 -28 105 -4 44 -9 101 -13 128
l-6 47 59 -35 c32 -20 101 -49 152 -65 116 -38 145 -38 36 -1 -126 43 -234
113 -234 152 0 21 10 25 26 9 15 -15 295 -15 447 0 70 7 126 14 124 16 -2 2
-86 -1 -188 -7 -113 -6 -219 -7 -274 -2 -86 8 -83 9 75 9 174 1 424 27 623 65
114 22 143 20 86 -6 l-34 -16 40 6 c73 11 107 25 95 40 -8 10 -7 14 7 18 10 3
19 5 21 6 2 0 12 -4 23 -9z m19 -633 c0 -21 -32 -46 -86 -68 -27 -11 -38 -17
-24 -14 109 25 131 28 142 17 9 -9 4 -20 -18 -43 -48 -51 -96 -68 -273 -95
l-86 -13 78 5 c42 3 112 14 154 24 93 24 151 26 160 5 7 -20 -21 -51 -67 -76
-43 -22 -28 -24 30 -4 23 8 46 12 52 9 35 -22 -141 -103 -291 -134 -294 -60
-569 -41 -752 50 l-75 38 4 99 c2 54 7 102 11 106 4 4 21 3 37 -3 36 -14 159
-40 182 -39 9 0 -20 9 -64 19 -87 20 -164 53 -164 71 0 7 9 9 23 5 58 -18 212
-47 302 -57 112 -13 351 -7 405 11 19 6 53 11 75 11 64 0 180 33 170 49 -7 11
35 40 57 40 10 0 18 -6 18 -13z m-337 -444 c-7 -2 -21 -2 -30 0 -10 3 -4 5 12
5 17 0 24 -2 18 -5z m-75 -10 c-10 -2 -26 -2 -35 0 -10 3 -2 5 17 5 19 0 27
-2 18 -5z m-120 -10 c-21 -2 -57 -2 -80 0 -24 2 -7 4 37 4 44 0 63 -2 43 -4z"/>
<path d="M1338 3993 c7 -3 16 -2 19 1 4 3 -2 6 -13 5 -11 0 -14 -3 -6 -6z"/>
<path d="M1338 3943 c12 -2 30 -2 40 0 9 3 -1 5 -23 4 -22 0 -30 -2 -17 -4z"/>
<path d="M1529 3433 c-13 -16 -12 -17 4 -4 9 7 17 15 17 17 0 8 -8 3 -21 -13z"/>
<path d="M1503 3415 c4 -5 -3 -15 -15 -22 -13 -7 -18 -12 -12 -13 5 0 18 6 29
13 15 12 16 15 4 22 -8 5 -10 4 -6 0z"/>
<path d="M1658 3818 c-8 -4 4 -8 30 -8 23 0 42 2 42 4 0 8 -60 12 -72 4z"/>
<path d="M438 3974 c-39 -21 -35 -28 5 -8 37 19 44 24 31 24 -5 -1 -21 -8 -36
-16z"/>
<path d="M2150 3830 c-6 -11 -8 -20 -6 -20 3 0 10 9 16 20 6 11 8 20 6 20 -3
0 -10 -9 -16 -20z"/>
<path d="M784 3796 c-3 -8 -4 -25 -2 -38 3 -17 5 -13 9 15 5 38 2 47 -7 23z"/>
<path d="M968 3514 c-21 -14 -38 -29 -38 -35 0 -5 -4 -8 -9 -4 -5 3 -13 0 -17
-7 -4 -7 -4 -10 1 -6 4 4 13 3 20 -2 8 -7 23 3 50 30 21 22 37 41 34 44 -2 2
-21 -7 -41 -20z"/>
<path d="M1002 3090 c0 -14 2 -19 5 -12 2 6 2 18 0 25 -3 6 -5 1 -5 -13z"/>
<path d="M2105 3588 l-50 -53 53 50 c48 46 57 55 49 55 -1 0 -25 -24 -52 -52z"/>
<path d="M1210 3460 c-9 -6 -10 -10 -3 -10 6 0 15 5 18 10 8 12 4 12 -15 0z"/>
<path d="M1192 3401 c-11 -7 -11 -9 0 -14 9 -3 15 1 15 9 0 8 -1 14 -1 14 -1
0 -7 -4 -14 -9z"/>
<path d="M2008 3193 c12 -2 32 -2 45 0 12 2 2 4 -23 4 -25 0 -35 -2 -22 -4z"/>
<path d="M2121 3146 c2 -2 22 -6 44 -9 28 -5 34 -4 20 3 -19 8 -73 14 -64 6z"/>
<path d="M2283 3096 c43 -19 85 -40 94 -48 14 -11 16 -11 9 0 -10 16 -143 82
-166 82 -8 0 20 -16 63 -34z"/>
<path d="M1912 2869 c-83 -36 -463 -160 -564 -184 -126 -29 -107 -32 29 -5
119 24 304 79 419 126 92 37 164 72 164 79 0 6 3 7 -48 -16z"/>
<path d="M1098 2593 c6 -2 18 -2 25 0 6 3 1 5 -13 5 -14 0 -19 -2 -12 -5z"/>
<path d="M1043 2583 c9 -2 23 -2 30 0 6 3 -1 5 -18 5 -16 0 -22 -2 -12 -5z"/>
<path d="M2415 2850 c-16 -7 -17 -9 -3 -9 9 -1 20 4 23 9 7 11 7 11 -20 0z"/>
<path d="M2388 2763 c7 -3 16 -2 19 1 4 3 -2 6 -13 5 -11 0 -14 -3 -6 -6z"/>
<path d="M1865 2489 c-61 -16 -64 -18 -22 -13 26 3 65 11 85 19 52 19 20 16
-63 -6z"/>
<path d="M1588 2493 c6 -2 18 -2 25 0 6 3 1 5 -13 5 -14 0 -19 -2 -12 -5z"/>
<path d="M1728 2383 c7 -3 16 -2 19 1 4 3 -2 6 -13 5 -11 0 -14 -3 -6 -6z"/>
<path d="M1653 2373 c9 -2 23 -2 30 0 6 3 -1 5 -18 5 -16 0 -22 -2 -12 -5z"/>
<path d="M713 2433 c9 -2 25 -2 35 0 9 3 1 5 -18 5 -19 0 -27 -2 -17 -5z"/>
<path d="M893 2353 c9 -2 23 -2 30 0 6 3 -1 5 -18 5 -16 0 -22 -2 -12 -5z"/>
<path d="M1898 2293 c7 -3 16 -2 19 1 4 3 -2 6 -13 5 -11 0 -14 -3 -6 -6z"/>
<path d="M1368 2063 c12 -2 30 -2 40 0 9 3 -1 5 -23 4 -22 0 -30 -2 -17 -4z"/>
<path d="M1138 2003 c7 -3 16 -2 19 1 4 3 -2 6 -13 5 -11 0 -14 -3 -6 -6z"/>
<path d="M1248 1993 c6 -2 18 -2 25 0 6 3 1 5 -13 5 -14 0 -19 -2 -12 -5z"/>
<path d="M1343 1983 c9 -2 25 -2 35 0 9 3 1 5 -18 5 -19 0 -27 -2 -17 -5z"/>
<path d="M1928 1893 c7 -3 16 -2 19 1 4 3 -2 6 -13 5 -11 0 -14 -3 -6 -6z"/>
<path d="M1718 1863 c6 -2 18 -2 25 0 6 3 1 5 -13 5 -14 0 -19 -2 -12 -5z"/>
<path d="M1310 1770 c30 -5 125 -11 210 -14 135 -4 142 -4 50 4 -168 13 -325
20 -260 10z"/>
<path d="M1698 1763 c6 -2 18 -2 25 0 6 3 1 5 -13 5 -14 0 -19 -2 -12 -5z"/>
<path d="M1928 1703 c6 -2 18 -2 25 0 6 3 1 5 -13 5 -14 0 -19 -2 -12 -5z"/>
<path d="M1398 1643 c7 -3 16 -2 19 1 4 3 -2 6 -13 5 -11 0 -14 -3 -6 -6z"/>
<path d="M1448 1633 c7 -3 16 -2 19 1 4 3 -2 6 -13 5 -11 0 -14 -3 -6 -6z"/>
<path d="M2028 1613 c7 -3 16 -2 19 1 4 3 -2 6 -13 5 -11 0 -14 -3 -6 -6z"/>
<path d="M1150 1594 c0 -12 132 -66 196 -79 114 -24 116 -15 4 15 -58 15 -126
37 -152 49 -27 11 -48 18 -48 15z"/>
<path d="M1473 1493 c9 -2 23 -2 30 0 6 3 -1 5 -18 5 -16 0 -22 -2 -12 -5z"/>
<path d="M1868 1493 c6 -2 18 -2 25 0 6 3 1 5 -13 5 -14 0 -19 -2 -12 -5z"/>
<path d="M1328 1403 c6 -2 18 -2 25 0 6 3 1 5 -13 5 -14 0 -19 -2 -12 -5z"/>
<path d="M1918 1403 c7 -3 16 -2 19 1 4 3 -2 6 -13 5 -11 0 -14 -3 -6 -6z"/>
<path d="M1388 1393 c12 -2 32 -2 45 0 12 2 2 4 -23 4 -25 0 -35 -2 -22 -4z"/>
<path d="M1828 1393 c12 -2 30 -2 40 0 9 3 -1 5 -23 4 -22 0 -30 -2 -17 -4z"/>
<path d="M1548 1378 c45 -4 119 -4 165 0 72 7 62 8 -83 8 -145 0 -155 -1 -82
-8z"/>
<path d="M1618 1333 c12 -2 32 -2 45 0 12 2 2 4 -23 4 -25 0 -35 -2 -22 -4z"/>
<path d="M1975 1230 c-13 -5 -14 -9 -5 -9 8 0 24 4 35 9 13 5 14 9 5 9 -8 0
-24 -4 -35 -9z"/>
<path d="M1278 1123 c7 -3 16 -2 19 1 4 3 -2 6 -13 5 -11 0 -14 -3 -6 -6z"/>
<path d="M1345 1109 c51 -10 92 -10 50 1 -16 4 -43 8 -60 8 -25 0 -24 -2 10
-9z"/>
<path d="M1355 1010 c39 -9 172 -14 164 -6 -2 2 -49 6 -104 9 -67 3 -87 2 -60
-3z"/>
<path d="M4863 3388 c-6 -7 -18 -38 -28 -68 -10 -30 -31 -86 -47 -123 -16 -38
-28 -73 -26 -79 4 -12 188 224 188 241 0 14 -41 41 -61 41 -9 0 -21 -6 -26
-12z"/>
<path d="M4566 3300 c-52 -33 -53 -37 -13 -115 29 -60 57 -95 73 -95 11 0 14
23 14 120 0 92 -3 120 -13 120 -7 0 -34 -14 -61 -30z"/>
<path d="M4937 3145 c-54 -48 -97 -93 -97 -102 0 -8 6 -13 13 -11 26 10 174
56 215 67 38 11 42 15 37 34 -14 47 -41 92 -56 95 -9 2 -59 -36 -112 -83z"/>
<path d="M2602 3118 c2 -6 33 -38 69 -69 l64 -57 180 8 c99 5 272 15 385 24
113 8 284 20 380 27 96 6 178 14 182 18 8 7 -161 11 -600 16 -211 3 -332 9
-457 24 -200 24 -208 25 -203 9z"/>
<path d="M4139 3066 c-5 -6 -267 -42 -399 -56 -58 -6 -163 -17 -235 -25 -71
-8 -179 -20 -240 -25 -60 -6 -139 -15 -175 -20 -36 -5 -68 -10 -71 -10 -4 0
-38 -24 -76 -53 -38 -30 -101 -76 -141 -104 -39 -28 -69 -53 -65 -56 3 -4 13
-3 22 2 21 11 173 47 276 66 44 8 123 24 175 35 52 11 158 31 235 45 77 14
178 36 225 50 47 14 175 50 285 80 111 30 212 59 225 64 25 10 24 10 -6 10
-17 1 -33 -1 -35 -3z"/>
<path d="M4543 3001 c-67 -9 -125 -20 -130 -25 -10 -10 -19 -354 -15 -590 l3
-178 22 6 c12 3 48 9 80 13 l58 6 -6 49 c-4 26 -4 71 0 98 6 42 12 53 36 66
28 14 30 14 38 -8 4 -13 14 -48 21 -78 21 -93 21 -93 106 -88 89 4 102 14 80
57 -9 17 -30 68 -45 113 -29 80 -29 81 -10 107 28 39 38 103 39 231 0 127 -11
183 -43 218 -25 27 -57 27 -234 3z m116 -125 c16 -19 23 -182 10 -224 -8 -23
-23 -39 -51 -53 -70 -36 -72 -33 -69 131 1 79 5 148 7 152 9 14 91 9 103 -6z"/>
<path d="M4156 2924 c-99 -19 -183 -37 -188 -42 -9 -9 -16 -757 -7 -767 4 -3
44 3 90 14 46 11 128 30 182 42 53 12 100 26 103 31 3 5 8 36 11 68 l6 60 -69
-6 c-38 -3 -93 -10 -123 -15 -30 -5 -56 -7 -58 -5 -2 2 -1 31 3 64 l6 61 57 6
c31 3 72 9 91 13 l35 7 3 74 3 73 -98 -3 -98 -4 -3 87 -3 86 78 17 c133 29
152 35 163 55 12 22 14 107 3 113 -5 2 -89 -11 -187 -29z"/>
<path d="M3821 2864 c-30 -8 -57 -17 -59 -19 -6 -5 -12 -44 -47 -280 -39 -263
-54 -316 -68 -247 -36 165 -87 422 -87 440 0 12 -6 25 -13 28 -14 5 -136 -12
-144 -20 -3 -3 2 -26 11 -53 9 -26 25 -102 36 -168 12 -66 39 -188 60 -272 22
-83 40 -168 40 -188 0 -44 18 -53 74 -36 23 6 62 17 87 23 l47 12 56 226 c30
124 65 286 77 360 36 231 35 210 8 209 -13 0 -49 -7 -78 -15z"/>
<path d="M3270 2745 c-30 -7 -80 -17 -110 -23 -30 -5 -81 -17 -112 -26 l-57
-17 3 -374 c1 -206 5 -377 7 -379 8 -8 359 70 372 83 12 12 12 120 0 132 -8 8
-19 6 -40 -4 -31 -16 -129 -37 -175 -37 l-29 0 3 67 3 67 85 18 c47 10 94 20
106 23 20 4 20 6 5 70 -16 66 -16 66 -46 60 -48 -10 -158 -26 -161 -23 -1 2 1
48 4 102 l7 100 80 22 c44 12 97 23 118 23 l37 1 0 65 c0 74 1 74 -100 50z"/>
<path d="M2800 2651 c-44 -14 -54 -21 -52 -37 1 -10 7 -113 12 -228 9 -191 8
-243 -4 -205 -2 8 -26 73 -52 144 -26 72 -58 165 -71 208 -13 42 -25 77 -26
77 -10 0 -156 -30 -168 -35 -13 -5 -17 -31 -22 -142 -9 -169 -8 -491 1 -558 6
-45 10 -50 34 -53 14 -2 46 2 69 8 l42 12 -7 244 c-3 134 -3 244 2 244 9 0
115 -252 153 -365 l27 -80 38 -3 c22 -1 57 3 79 11 35 12 41 18 47 54 3 22 5
134 4 249 -2 115 -4 269 -5 342 -1 152 3 147 -101 113z"/>
<path d="M4688 2229 c-66 -7 -161 -31 -186 -47 -17 -11 -21 -687 -4 -704 8 -8
29 -6 79 8 l68 20 -3 91 -4 92 39 7 c50 9 122 46 151 76 28 31 42 110 42 243
-1 141 -28 208 -88 217 -15 2 -57 0 -94 -3z m41 -133 c6 -7 14 -57 18 -109 5
-81 3 -100 -11 -122 -15 -23 -83 -62 -91 -53 -1 2 -6 67 -9 145 -7 131 -6 142
11 146 36 9 71 7 82 -7z"/>
<path d="M4345 2143 l-31 -4 -2 -207 c-2 -278 -8 -327 -41 -364 -24 -27 -30
-29 -61 -21 -25 6 -40 19 -53 43 -17 32 -18 57 -14 278 3 172 1 242 -7 242 -6
-1 -36 -7 -66 -14 l-55 -13 3 -259 c3 -231 5 -264 23 -303 43 -99 159 -125
275 -62 102 55 127 132 126 393 0 103 -4 212 -7 243 -8 60 -5 59 -90 48z"/>
<path d="M3785 2048 c-16 -4 -84 -20 -150 -34 -66 -15 -122 -30 -125 -34 -7
-11 -6 -678 2 -685 3 -3 28 3 57 14 38 15 239 51 287 51 6 0 5 48 -2 93 -6 35
-9 37 -43 37 -20 0 -63 -7 -96 -15 -88 -21 -85 -23 -85 44 l0 59 51 11 c29 6
68 8 87 5 l35 -7 -6 68 c-4 38 -11 73 -17 79 -8 8 -60 3 -140 -16 -12 -2 -15
11 -15 77 l0 80 40 8 c115 24 170 38 177 45 12 12 -2 120 -16 125 -6 2 -24 0
-41 -5z"/>
<path d="M3342 1952 c-12 -8 -37 -132 -77 -377 -20 -118 -27 -142 -33 -100 -2
17 -12 65 -23 108 -30 118 -59 266 -59 298 0 35 -19 37 -92 12 l-49 -18 7 -80
c4 -44 22 -130 40 -191 18 -61 42 -172 55 -245 12 -74 25 -137 28 -141 10 -12
184 36 192 52 4 8 15 67 24 130 9 63 30 169 46 234 29 116 69 299 69 317 0 11
-110 12 -128 1z"/>
<path d="M2868 1863 c-13 -3 -18 -16 -19 -46 -2 -56 2 -651 4 -653 4 -3 128
14 131 17 2 2 -1 38 -6 79 -6 43 -7 183 -4 327 3 138 3 259 0 267 -6 16 -63
20 -106 9z"/>
<path d="M2559 1806 c-67 -24 -118 -75 -137 -136 -11 -37 -26 -237 -26 -355 0
-83 35 -172 80 -202 60 -39 218 -11 281 50 44 41 50 68 58 239 6 120 5 149 -6
153 -8 2 -54 -1 -104 -8 l-90 -13 0 -64 0 -65 39 3 39 4 -5 -52 c-5 -54 -26
-90 -70 -123 -30 -22 -57 -17 -76 14 -19 30 -28 300 -13 358 28 101 124 125
154 38 4 -10 10 -16 14 -14 5 3 34 12 66 21 55 16 57 18 51 44 -11 47 -46 94
-80 108 -41 17 -127 17 -175 0z"/>
<path d="M5035 1524 c-27 -7 -95 -20 -150 -29 -155 -23 -211 -34 -328 -66 -59
-16 -169 -45 -245 -65 -226 -58 -428 -121 -419 -130 5 -5 219 36 392 75 111
25 308 60 526 92 38 6 94 28 173 69 141 75 147 81 51 54z"/>
<path d="M2165 950 c-39 -26 -26 -26 22 0 21 11 31 20 23 20 -8 0 -28 -9 -45
-20z"/>
<path d="M2200 934 c-45 -16 -85 -43 -45 -31 57 17 95 33 95 39 0 10 5 10 -50
-8z"/>
<path d="M1278 833 c7 -3 16 -2 19 1 4 3 -2 6 -13 5 -11 0 -14 -3 -6 -6z"/>
<path d="M1328 823 c7 -3 16 -2 19 1 4 3 -2 6 -13 5 -11 0 -14 -3 -6 -6z"/>
<path d="M1775 820 c-22 -4 -89 -11 -150 -15 -60 -4 -104 -10 -97 -12 16 -6
266 15 312 26 34 9 34 9 5 9 -16 0 -48 -4 -70 -8z"/>
<path d="M1378 813 c6 -2 18 -2 25 0 6 3 1 5 -13 5 -14 0 -19 -2 -12 -5z"/>
<path d="M1248 800 c29 -12 228 -33 267 -27 21 3 15 5 -20 6 -45 1 -137 12
-235 26 -29 5 -31 4 -12 -5z"/>
<path d="M1448 803 c12 -2 32 -2 45 0 12 2 2 4 -23 4 -25 0 -35 -2 -22 -4z"/>
<path d="M2195 790 c-13 -6 -15 -9 -5 -9 8 0 22 4 30 9 18 12 2 12 -25 0z"/>
<path d="M1220 770 c8 -5 20 -10 25 -10 6 0 3 5 -5 10 -8 5 -19 10 -25 10 -5
0 -3 -5 5 -10z"/>
<path d="M2118 763 c7 -3 16 -2 19 1 4 3 -2 6 -13 5 -11 0 -14 -3 -6 -6z"/>
<path d="M1268 753 c7 -3 16 -2 19 1 4 3 -2 6 -13 5 -11 0 -14 -3 -6 -6z"/>
<path d="M2228 753 c7 -3 16 -2 19 1 4 3 -2 6 -13 5 -11 0 -14 -3 -6 -6z"/>
<path d="M1308 743 c6 -2 18 -2 25 0 6 3 1 5 -13 5 -14 0 -19 -2 -12 -5z"/>
<path d="M2188 743 c7 -3 16 -2 19 1 4 3 -2 6 -13 5 -11 0 -14 -3 -6 -6z"/>
<path d="M1363 733 c9 -2 25 -2 35 0 9 3 1 5 -18 5 -19 0 -27 -2 -17 -5z"/>
<path d="M1693 733 c9 -2 25 -2 35 0 9 3 1 5 -18 5 -19 0 -27 -2 -17 -5z"/>
<path d="M1473 723 c31 -2 83 -2 115 0 31 2 5 3 -58 3 -63 0 -89 -1 -57 -3z"/>
<path d="M1258 710 c12 -5 53 -12 90 -14 l67 -5 -75 13 c-87 17 -114 18 -82 6z"/>
<path d="M2148 693 c6 -2 18 -2 25 0 6 3 1 5 -13 5 -14 0 -19 -2 -12 -5z"/>
<path d="M1250 680 c8 -5 26 -10 39 -10 32 0 24 6 -19 14 -25 4 -31 3 -20 -4z"/>
<path d="M1355 660 c40 -9 112 -13 104 -6 -2 2 -35 6 -74 9 -54 4 -61 4 -30
-3z"/>
<path d="M1508 643 c18 -2 45 -2 60 0 15 2 0 4 -33 4 -33 0 -45 -2 -27 -4z"/>
<path d="M1348 633 c6 -2 18 -2 25 0 6 3 1 5 -13 5 -14 0 -19 -2 -12 -5z"/>
<path d="M1391 626 c2 -2 40 -6 84 -8 44 -3 69 -2 55 2 -25 8 -147 13 -139 6z"/>
<path d="M1776 394 c-21 -19 -25 -25 -12 -23 10 2 25 14 34 27 19 28 14 27
-22 -4z"/>
<path d="M1441 184 c-63 -56 -116 -69 -150 -35 -11 11 -21 16 -21 11 0 -15 38
-50 55 -50 29 0 80 29 130 75 27 25 47 45 43 45 -3 0 -29 -21 -57 -46z"/>
<path d="M1539 203 l-24 -28 28 24 c25 23 32 31 24 31 -2 0 -14 -12 -28 -27z"/>
<path d="M1471 155 c-44 -31 -151 -135 -151 -146 0 -16 19 -9 30 11 10 18 87
95 140 139 34 28 23 26 -19 -4z"/>
<path d="M1240 145 c0 -5 11 -41 25 -80 l25 -70 -6 50 c-5 42 -43 130 -44 100z"/>
</g>
</svg>
